<?xml version="1.0" standalone="no"?>
<!DOCTYPE svg PUBLIC "-//W3C//DTD SVG 20010904//EN"
 "http://www.w3.org/TR/2001/REC-SVG-20010904/DTD/svg10.dtd">
<svg version="1.0" xmlns="http://www.w3.org/2000/svg"
 width="480.000000pt" height="480.000000pt" viewBox="0 0 480.000000 480.000000"
 preserveAspectRatio="xMidYMid meet">

<g transform="translate(0.000000,480.000000) scale(0.100000,-0.100000)"
fill="#000000" stroke="none">
<path d="M2023 4720 c-62 -13 -129 -47 -173 -86 l-39 -36 -56 21 c-190 71
-535 -37 -775 -242 -304 -259 -534 -725 -557 -1126 -9 -161 20 -362 106 -721
56 -235 79 -587 101 -1570 14 -630 27 -734 109 -885 l37 -70 103 -3 c79 -2
102 0 100 10 -5 41 4 55 59 89 90 58 129 75 271 117 74 22 140 47 148 55 14
14 42 146 43 205 0 17 5 32 10 32 6 0 10 -12 10 -27 0 -52 28 -145 49 -166
l21 -21 127 18 c71 10 137 24 149 31 11 7 26 32 33 54 13 45 31 46 31 2 0 -15
6 -35 13 -44 11 -16 37 -16 307 -9 l295 7 60 122 c33 67 63 125 67 128 8 9 0
-60 -18 -154 -12 -62 -12 -77 -1 -88 12 -13 49 -17 345 -45 171 -16 171 -15
257 127 7 12 9 -7 7 -63 -2 -44 1 -89 7 -99 6 -13 6 -42 -1 -91 -21 -134 21
-155 168 -83 146 70 191 147 299 506 126 422 130 462 116 1075 -12 521 -52
1026 -111 1413 -79 514 -222 817 -537 1137 -229 232 -489 387 -773 460 -94 25
-331 36 -407 20z m-304 -954 c9 -8 91 -52 183 -99 140 -71 298 -173 374 -242
7 -5 37 -30 68 -54 31 -24 56 -48 56 -52 0 -5 6 -9 14 -9 8 0 16 -4 18 -8 5
-12 168 -128 229 -163 30 -17 43 -28 29 -24 -107 29 -234 32 -383 10 -183 -27
-304 -77 -336 -138 -27 -50 -5 -54 116 -25 219 54 446 73 652 56 45 -4 50 15
13 52 -17 16 -28 30 -26 30 24 0 223 -115 276 -160 88 -73 138 -141 197 -261
77 -160 113 -270 135 -416 13 -86 13 -100 0 -113 -13 -13 -16 -13 -25 0 -8 13
-12 12 -25 -5 -9 -11 -25 -38 -36 -60 -11 -22 -46 -75 -77 -118 -31 -44 -84
-120 -118 -170 -124 -183 -500 -559 -649 -649 -115 -70 -251 -98 -476 -98
-143 0 -200 11 -303 60 -93 43 -163 92 -304 208 -284 236 -385 415 -440 787
-11 72 -22 162 -26 201 l-7 71 32 6 c17 4 39 3 48 -2 14 -8 17 -3 20 27 1 20
10 49 20 66 19 33 82 80 120 91 l23 7 -22 -43 c-32 -64 -24 -159 21 -224 l33
-47 88 4 89 4 45 44 c45 44 59 46 67 5 3 -18 6 -17 23 9 13 20 19 47 20 88 0
32 3 58 7 58 4 0 18 -15 32 -32 33 -43 34 -22 1 23 -76 102 -192 152 -355 152
-105 1 -176 -22 -220 -68 -13 -14 -27 -22 -33 -18 -6 3 -7 1 -3 -5 13 -21 -5
-62 -28 -63 -21 0 -21 -1 2 -11 13 -6 21 -18 20 -27 -4 -18 -36 -27 -48 -14
-13 13 -50 351 -51 461 -1 175 31 300 112 434 88 145 203 245 391 339 53 27
99 49 102 49 3 0 40 17 83 37 43 20 87 40 98 44 36 13 118 10 134 -5z m-508
-1226 c26 -14 26 -66 0 -80 -34 -18 -71 6 -71 46 0 38 32 54 71 34z"/>
<path d="M1021 2944 c-83 -22 -128 -52 -151 -99 -20 -41 -25 -76 -14 -88 3 -3
23 5 44 19 21 14 60 32 87 40 66 20 278 44 340 38 68 -6 86 14 49 51 -44 44
-86 55 -198 54 -57 0 -127 -7 -157 -15z"/>
<path d="M2415 2781 c-185 -31 -325 -145 -325 -265 0 -61 16 -59 34 6 13 48
27 72 62 106 48 48 61 51 44 8 -23 -62 -5 -153 42 -210 27 -33 34 -36 85 -36
79 0 132 18 180 62 47 42 58 45 71 23 13 -25 39 -7 49 33 15 58 8 107 -21 163
-14 29 -25 53 -23 55 7 8 126 -56 159 -85 22 -19 39 -27 43 -21 3 5 23 11 43
11 l37 2 -40 6 c-42 6 -60 35 -33 52 11 7 11 9 -1 9 -8 0 -29 11 -47 25 -19
14 -55 33 -81 41 -59 18 -210 26 -278 15z m-31 -110 c33 -36 -7 -86 -57 -73
-10 3 -24 15 -29 28 -23 49 49 86 86 45z"/>
<path d="M1560 1897 c0 -4 9 -26 20 -47 39 -77 166 -108 272 -67 51 20 98 67
98 98 0 25 -7 24 -59 -11 -24 -16 -60 -34 -80 -40 -88 -24 -199 0 -235 51 -9
13 -16 20 -16 16z"/>
<path d="M2366 1745 c-10 -8 -51 -26 -90 -41 -39 -14 -105 -39 -146 -54 -107
-40 -210 -60 -320 -61 -14 -1 -54 6 -90 15 -36 9 -109 16 -162 16 -53 0 -109
5 -124 10 -43 17 -38 6 15 -29 156 -101 396 -108 649 -20 130 46 302 142 302
170 0 13 -12 11 -34 -6z"/>
<path d="M1540 1504 c0 -7 108 -54 123 -53 7 0 -8 10 -33 21 -67 30 -90 38
-90 32z"/>
</g>
</svg>
